<?xml version="1.0" encoding="utf-8"?>
<!-- Generator: Adobe Illustrator 26.0.0, SVG Export Plug-In . SVG Version: 6.00 Build 0)  -->
<svg version="1.1" id="Capa_1" xmlns="http://www.w3.org/2000/svg" xmlns:xlink="http://www.w3.org/1999/xlink" x="0px" y="0px"
	 viewBox="0 0 1920 1080" style="enable-background:new 0 0 1920 1080;" xml:space="preserve">
<style type="text/css">
	.st0{fill:#0A0909;}
	.st1{fill:#5C00DC;}
	.st2{fill:#131313;}
	.st3{fill:url(#SVGID_1_);}
	.st4{fill:url(#SVGID_00000082351653551939652330000006387804804889169800_);}
	.st5{fill:url(#SVGID_00000041283784687321116810000008806950803365674639_);}
	.st6{fill:url(#SVGID_00000157993363448005715520000017920743199972748937_);}
	.st7{fill:url(#SVGID_00000161618556349227925510000009069970194901456804_);}
	.st8{fill:url(#SVGID_00000027576358336284658280000010558098963727785143_);}
	.st9{fill:url(#SVGID_00000059281882227052555980000005728540183457784719_);}
	.st10{fill:url(#SVGID_00000112601665723416724160000014461797672804441515_);}
	.st11{fill:url(#SVGID_00000003789987829911590990000009265763561236018084_);}
	.st12{fill:url(#SVGID_00000161630703691519848670000014841670561878860176_);}
	.st13{fill:url(#SVGID_00000150092869632790944270000002317391500516370879_);}
	.st14{fill:#FFFFFF;}
	.st15{fill:url(#SVGID_00000106127747034973585120000002898424147169394085_);}
	.st16{fill:url(#SVGID_00000174578006786858752300000017067197965972945837_);}
	.st17{fill:url(#SVGID_00000049921337914024373170000004491005174586836615_);}
	.st18{fill:url(#SVGID_00000100362751754521898000000007130335241713777044_);}
	.st19{fill:url(#SVGID_00000129183406942979422640000001462210510991015848_);}
	.st20{fill:url(#SVGID_00000086674255873785909800000003541343363293962169_);}
	.st21{fill:url(#SVGID_00000081647810275164805040000000237605411504474034_);}
	.st22{fill:url(#SVGID_00000083091314448033260840000007468104752921952905_);}
	.st23{fill:url(#SVGID_00000052105580463070567390000002826147677793165240_);}
	.st24{fill:url(#SVGID_00000023254276704125934400000005012374430587274625_);}
	.st25{fill:url(#SVGID_00000003074565054245697320000007060631307320722087_);}
	.st26{fill:url(#SVGID_00000049903784527306196140000003211898630246822030_);}
	.st27{fill:url(#SVGID_00000084515950906198011080000014181087011286999716_);}
	.st28{fill:url(#SVGID_00000057826601976878139040000006446159773336757132_);}
	.st29{fill:url(#SVGID_00000076583349216478011520000016738096278080144019_);}
	.st30{fill:url(#SVGID_00000014623835395117095920000017674110620228308373_);}
	.st31{fill:url(#SVGID_00000088116759634306162530000017373823243766570112_);}
	.st32{fill:url(#SVGID_00000035488832302490484600000009934622098776081086_);}
	.st33{fill:url(#SVGID_00000132051142414162276390000003448828347881657497_);}
	.st34{fill:url(#SVGID_00000003085923601559811720000013690848370557096379_);}
	.st35{fill:url(#SVGID_00000137832372631039242320000014816313106481094571_);}
	.st36{fill:url(#SVGID_00000137830435286164066090000013548883160448591791_);}
	.st37{fill:url(#SVGID_00000029016329467828389350000004352258821539713948_);}
	.st38{fill:url(#SVGID_00000168117328332156527490000004162603172464894854_);}
	.st39{fill:url(#SVGID_00000156547647278153470250000001235618871908969913_);}
	.st40{fill:url(#SVGID_00000130619655793117241210000011068199936108501920_);}
	.st41{fill:url(#SVGID_00000168077017148849517720000004121898057286682038_);}
	.st42{fill:url(#SVGID_00000132794620187120174810000000622630351747424174_);}
	.st43{fill:url(#SVGID_00000034076637333873484120000012347687009495169420_);}
	.st44{fill:#191919;}
</style>
<rect y="2852.57" class="st0" width="1920" height="1080"/>
<rect y="4251.43" class="st0" width="1920" height="1080"/>
<rect y="5609.14" class="st0" width="1920" height="1080"/>
<line class="st1" x1="6322.29" y1="6675.43" x2="4402.29" y2="6675.43"/>
<path class="st2" d="M10007.79-6976.93h-286l0,0c0-157.95,128.05-286,286-286l0,0V-6976.93z"/>
<path class="st2" d="M10007.79-6690.93L10007.79-6690.93c-157.95,0-286-128.05-286-286v0h286V-6690.93z"/>
<path class="st2" d="M10273.79-6690.93h-266v-286h286v266C10293.79-6699.88,10284.84-6690.93,10273.79-6690.93z"/>
<path class="st2" d="M10293.79-6976.93h-286v-286l0,0C10165.75-7262.93,10293.79-7134.88,10293.79-6976.93L10293.79-6976.93z"/>
<path class="st2" d="M11956.94-5983.01v286h-4c-155.74,0-282-126.26-282-282v-4L11956.94-5983.01z"/>
<path class="st2" d="M12242.94-5983.01L12242.94-5983.01l-286,0v-286h0C12114.89-6269.01,12242.94-6140.96,12242.94-5983.01z"/>
<path class="st2" d="M11956.94-6269.01v286l-286,0l0,0C11670.94-6140.96,11798.98-6269.01,11956.94-6269.01L11956.94-6269.01z"/>
<path class="st2" d="M10084.94-5983.01v266c0,11.05-8.95,20-20,20l0,0c-146.91,0-266-119.09-266-266v-20L10084.94-5983.01z"/>
<path class="st2" d="M10370.94-6003.01L10370.94-6003.01c0,11.05-8.95,20-20,20h-266v-286h20
	C10251.84-6269.01,10370.94-6149.92,10370.94-6003.01z"/>
<path class="st2" d="M10084.94-6269.01v286l-286,0l0,0C9798.94-6140.96,9926.98-6269.01,10084.94-6269.01L10084.94-6269.01z"/>
<g id="Logo_violeta">
	<linearGradient id="SVGID_1_" gradientUnits="userSpaceOnUse" x1="35.5843" y1="5037.3584" x2="1715.5844" y2="4468.2153">
		<stop  offset="0" style="stop-color:#FAF4F0"/>
		<stop  offset="0.2612" style="stop-color:#C8AAFF"/>
		<stop  offset="0.5" style="stop-color:#9D4EDD"/>
		<stop  offset="0.5283" style="stop-color:#8E3DDD"/>
		<stop  offset="0.5812" style="stop-color:#7822DC"/>
		<stop  offset="0.6353" style="stop-color:#690FDC"/>
		<stop  offset="0.6908" style="stop-color:#5F04DC"/>
		<stop  offset="0.75" style="stop-color:#5C00DC"/>
		<stop  offset="0.7976" style="stop-color:#770AB9"/>
		<stop  offset="0.9374" style="stop-color:#C42655"/>
		<stop  offset="1" style="stop-color:#E2312D"/>
	</linearGradient>
	<path class="st3" d="M650.55,4505.43L650.55,4505.43L650.55,4505.43c-157.95,0-286,128.05-286,286v0l0,0
		c0,157.95,128.05,286,286,286h0h266c11.05,0,20-8.95,20-20v-266v0C936.55,4633.48,808.5,4505.43,650.55,4505.43z"/>
	
		<linearGradient id="SVGID_00000134944385189363757120000016623417429166247103_" gradientUnits="userSpaceOnUse" x1="84.5795" y1="5181.9824" x2="1764.5795" y2="4612.8398">
		<stop  offset="0" style="stop-color:#FAF4F0"/>
		<stop  offset="0.2612" style="stop-color:#C8AAFF"/>
		<stop  offset="0.5" style="stop-color:#9D4EDD"/>
		<stop  offset="0.5283" style="stop-color:#8E3DDD"/>
		<stop  offset="0.5812" style="stop-color:#7822DC"/>
		<stop  offset="0.6353" style="stop-color:#690FDC"/>
		<stop  offset="0.6908" style="stop-color:#5F04DC"/>
		<stop  offset="0.75" style="stop-color:#5C00DC"/>
		<stop  offset="0.7976" style="stop-color:#770AB9"/>
		<stop  offset="0.9374" style="stop-color:#C42655"/>
		<stop  offset="1" style="stop-color:#E2312D"/>
	</linearGradient>
	<path style="fill:url(#SVGID_00000134944385189363757120000016623417429166247103_);" d="M1289.45,4505.43h-20h0
		c-157.95,0-286,128.05-286,286v0v20c0,146.91,119.09,266,266,266l0,0c11.05,0,20-8.95,20-20v-266h266c11.05,0,20-8.95,20-20v0
		C1555.45,4624.52,1436.36,4505.43,1289.45,4505.43z"/>
</g>
<rect x="12000.99" y="-8790.46" class="st2" width="286" height="286"/>
<rect x="12000.99" y="-8504.46" class="st2" width="286" height="286"/>
<path class="st2" d="M12552.99-8218.46h-266v-286h286v266C12572.99-8227.42,12564.04-8218.46,12552.99-8218.46z"/>
<rect x="12286.99" y="-8790.46" class="st2" width="286" height="286"/>
<path class="st2" d="M11478.93-5697.01h-246c-11.05,0-20-8.95-20-20v-266h286v266
	C11498.93-5705.96,11489.97-5697.01,11478.93-5697.01z"/>
<path class="st2" d="M11498.93-5983.01h-286v-266c0-11.05,8.95-20,20-20h246c11.05,0,20,8.95,20,20V-5983.01z"/>
<path class="st2" d="M10783.93-5983.01h-286v-266c0-11.05,8.95-20,20-20h246c11.05,0,20,8.95,20,20V-5983.01z"/>
<path class="st2" d="M10783.93-5697.01L10783.93-5697.01c-157.95,0-286-128.05-286-286l0,0h286V-5697.01z"/>
<path class="st2" d="M11049.93-5697.01h-266v-286h266c11.05,0,20,8.95,20,20v246
	C11069.93-5705.96,11060.97-5697.01,11049.93-5697.01z"/>
<path class="st2" d="M12704.06-5983.01h-286v-266c0-11.05,8.95-20,20-20h246c11.05,0,20,8.95,20,20V-5983.01z"/>
<path class="st2" d="M12704.06-5697.01L12704.06-5697.01c-157.95,0-286-128.05-286-286l0,0h286V-5697.01z"/>
<path class="st2" d="M12970.06-5697.01h-266v-286h266c11.05,0,20,8.95,20,20v246
	C12990.06-5705.96,12981.11-5697.01,12970.06-5697.01z"/>
<path class="st2" d="M12316-6976.93h-286l0,0c0-157.95,128.05-286,286-286l0,0V-6976.93z"/>
<path class="st2" d="M12030-6690.93h-20c-146.91,0-266-119.09-266-266l0,0c0-11.05,8.95-20,20-20h266V-6690.93z"/>
<path class="st2" d="M12030-6690.93L12030-6690.93l0-286h286v0C12316-6818.98,12187.95-6690.93,12030-6690.93z"/>
<path class="st2" d="M12582-6976.93h-266v-286h20c146.91,0,266,119.09,266,266v0C12602-6985.88,12593.04-6976.93,12582-6976.93z"/>
<path class="st2" d="M11355.93-6976.93h-286v-266c0-11.05,8.95-20,20-20h266V-6976.93z"/>
<path class="st2" d="M11355.93-6690.93L11355.93-6690.93c-157.95,0-286-128.05-286-286v0h286V-6690.93z"/>
<path class="st2" d="M11355.93-6690.93L11355.93-6690.93v-286h286v0C11641.93-6818.98,11513.88-6690.93,11355.93-6690.93z"/>
<path class="st2" d="M11641.93-6976.93h-286v-286h266c11.05,0,20,8.95,20,20V-6976.93z"/>
<path class="st2" d="M10681.86-6976.93h-286v-20c0-146.91,119.09-266,266-266h0c11.04,0,20,8.95,20,20V-6976.93z"/>
<path class="st2" d="M10681.86-6690.93L10681.86-6690.93c-157.95,0-286-128.05-286-286v0h286V-6690.93z"/>
<path class="st2" d="M10701.86-6690.93h-20v-286h286v20C10967.86-6810.02,10848.77-6690.93,10701.86-6690.93z"/>
<g>
	
		<linearGradient id="SVGID_00000129900971992499414530000002021108996695816874_" gradientUnits="userSpaceOnUse" x1="-326.0799" y1="3405.7776" x2="1552.7772" y2="2774.9204">
		<stop  offset="0" style="stop-color:#FAF4F0"/>
		<stop  offset="0.2612" style="stop-color:#C8AAFF"/>
		<stop  offset="0.5" style="stop-color:#9D4EDD"/>
		<stop  offset="0.5283" style="stop-color:#8E3DDD"/>
		<stop  offset="0.5812" style="stop-color:#7822DC"/>
		<stop  offset="0.6353" style="stop-color:#690FDC"/>
		<stop  offset="0.6908" style="stop-color:#5F04DC"/>
		<stop  offset="0.75" style="stop-color:#5C00DC"/>
		<stop  offset="0.7976" style="stop-color:#770AB9"/>
		<stop  offset="0.9374" style="stop-color:#C42655"/>
		<stop  offset="1" style="stop-color:#E2312D"/>
	</linearGradient>
	<path style="fill:url(#SVGID_00000129900971992499414530000002021108996695816874_);" d="M341.06,3036.1L341.06,3036.1
		c-71.91,0-130.21,58.3-130.21,130.21c0,71.91,58.3,130.21,130.21,130.21h0h110.21c11.05,0,20-8.95,20-20v-110.21
		C471.28,3094.39,412.98,3036.1,341.06,3036.1z"/>
	
		<linearGradient id="SVGID_00000160907174498501982810000016774481090511976595_" gradientUnits="userSpaceOnUse" x1="-125.6743" y1="4002.6377" x2="1753.1829" y2="3371.7805">
		<stop  offset="0" style="stop-color:#FAF4F0"/>
		<stop  offset="0.2612" style="stop-color:#C8AAFF"/>
		<stop  offset="0.5" style="stop-color:#9D4EDD"/>
		<stop  offset="0.5283" style="stop-color:#8E3DDD"/>
		<stop  offset="0.5812" style="stop-color:#7822DC"/>
		<stop  offset="0.6353" style="stop-color:#690FDC"/>
		<stop  offset="0.6908" style="stop-color:#5F04DC"/>
		<stop  offset="0.75" style="stop-color:#5C00DC"/>
		<stop  offset="0.7976" style="stop-color:#770AB9"/>
		<stop  offset="0.9374" style="stop-color:#C42655"/>
		<stop  offset="1" style="stop-color:#E2312D"/>
	</linearGradient>
	<path style="fill:url(#SVGID_00000160907174498501982810000016774481090511976595_);" d="M1411.01,3360.05L1411.01,3360.05
		L1411.01,3360.05c-71.91,0-130.21,58.3-130.21,130.21c0,71.92,58.3,130.21,130.21,130.21h0v-130.21h130.21
		C1541.22,3418.35,1482.92,3360.05,1411.01,3360.05z"/>
	
		<linearGradient id="SVGID_00000114052649182272290670000007554323200428140424_" gradientUnits="userSpaceOnUse" x1="-204.0643" y1="3769.1719" x2="1674.7928" y2="3138.3149">
		<stop  offset="0" style="stop-color:#FAF4F0"/>
		<stop  offset="0.2612" style="stop-color:#C8AAFF"/>
		<stop  offset="0.5" style="stop-color:#9D4EDD"/>
		<stop  offset="0.5283" style="stop-color:#8E3DDD"/>
		<stop  offset="0.5812" style="stop-color:#7822DC"/>
		<stop  offset="0.6353" style="stop-color:#690FDC"/>
		<stop  offset="0.6908" style="stop-color:#5F04DC"/>
		<stop  offset="0.75" style="stop-color:#5C00DC"/>
		<stop  offset="0.7976" style="stop-color:#770AB9"/>
		<stop  offset="0.9374" style="stop-color:#C42655"/>
		<stop  offset="1" style="stop-color:#E2312D"/>
	</linearGradient>
	<path style="fill:url(#SVGID_00000114052649182272290670000007554323200428140424_);" d="M650.21,3360.05h-9.11h0
		c-71.91,0-130.21,58.3-130.21,130.21v9.11c0,66.89,54.22,121.11,121.11,121.11c5.03,0,9.11-4.08,9.11-9.11v-121.11h121.11
		c5.03,0,9.11-4.08,9.11-9.11C771.32,3414.27,717.09,3360.05,650.21,3360.05z"/>
	
		<linearGradient id="SVGID_00000127012348201030438290000000347004058395736739_" gradientUnits="userSpaceOnUse" x1="-148.3935" y1="3934.9739" x2="1730.4636" y2="3304.1169">
		<stop  offset="0" style="stop-color:#FAF4F0"/>
		<stop  offset="0.2612" style="stop-color:#C8AAFF"/>
		<stop  offset="0.5" style="stop-color:#9D4EDD"/>
		<stop  offset="0.5283" style="stop-color:#8E3DDD"/>
		<stop  offset="0.5812" style="stop-color:#7822DC"/>
		<stop  offset="0.6353" style="stop-color:#690FDC"/>
		<stop  offset="0.6908" style="stop-color:#5F04DC"/>
		<stop  offset="0.75" style="stop-color:#5C00DC"/>
		<stop  offset="0.7976" style="stop-color:#770AB9"/>
		<stop  offset="0.9374" style="stop-color:#C42655"/>
		<stop  offset="1" style="stop-color:#E2312D"/>
	</linearGradient>
	<path style="fill:url(#SVGID_00000127012348201030438290000000347004058395736739_);" d="M1221.18,3360.05h-90.21
		c-11.05,0-20,8.95-20,20v110.21v110.21c0,11.05,8.95,20,20,20h90.21c11.05,0,20-8.95,20-20v-110.21v-110.21
		C1241.18,3369,1232.23,3360.05,1221.18,3360.05z"/>
	
		<linearGradient id="SVGID_00000176746334667900077990000008114077032360111508_" gradientUnits="userSpaceOnUse" x1="-172.1962" y1="3864.0835" x2="1706.661" y2="3233.2263">
		<stop  offset="0" style="stop-color:#FAF4F0"/>
		<stop  offset="0.2612" style="stop-color:#C8AAFF"/>
		<stop  offset="0.5" style="stop-color:#9D4EDD"/>
		<stop  offset="0.5283" style="stop-color:#8E3DDD"/>
		<stop  offset="0.5812" style="stop-color:#7822DC"/>
		<stop  offset="0.6353" style="stop-color:#690FDC"/>
		<stop  offset="0.6908" style="stop-color:#5F04DC"/>
		<stop  offset="0.75" style="stop-color:#5C00DC"/>
		<stop  offset="0.7976" style="stop-color:#770AB9"/>
		<stop  offset="0.9374" style="stop-color:#C42655"/>
		<stop  offset="1" style="stop-color:#E2312D"/>
	</linearGradient>
	<path style="fill:url(#SVGID_00000176746334667900077990000008114077032360111508_);" d="M1051.36,3490.26H941.14v-110.21
		c0-11.05-8.95-20-20-20h-90.21c-11.05,0-20,8.95-20,20v110.21c0,71.92,58.3,130.21,130.21,130.21h0h110.21c11.05,0,20-8.95,20-20
		v-90.21C1071.36,3499.22,1062.4,3490.26,1051.36,3490.26z"/>
	
		<linearGradient id="SVGID_00000010994347650169362710000009603561239763239849_" gradientUnits="userSpaceOnUse" x1="-94.1918" y1="4096.4009" x2="1784.6654" y2="3465.5437">
		<stop  offset="0" style="stop-color:#FAF4F0"/>
		<stop  offset="0.2612" style="stop-color:#C8AAFF"/>
		<stop  offset="0.5" style="stop-color:#9D4EDD"/>
		<stop  offset="0.5283" style="stop-color:#8E3DDD"/>
		<stop  offset="0.5812" style="stop-color:#7822DC"/>
		<stop  offset="0.6353" style="stop-color:#690FDC"/>
		<stop  offset="0.6908" style="stop-color:#5F04DC"/>
		<stop  offset="0.75" style="stop-color:#5C00DC"/>
		<stop  offset="0.7976" style="stop-color:#770AB9"/>
		<stop  offset="0.9374" style="stop-color:#C42655"/>
		<stop  offset="1" style="stop-color:#E2312D"/>
	</linearGradient>
	<path style="fill:url(#SVGID_00000010994347650169362710000009603561239763239849_);" d="M1821.26,3490.26h-110.21v-110.21
		c0-11.05-8.95-20-20-20h-90.21c-11.05,0-20,8.95-20,20v110.21c0,71.92,58.3,130.21,130.21,130.21h110.21c11.05,0,20-8.95,20-20
		v-90.21C1841.26,3499.22,1832.31,3490.26,1821.26,3490.26z"/>
	
		<linearGradient id="SVGID_00000129180805075983398260000002007395285152379020_" gradientUnits="userSpaceOnUse" x1="-232.2268" y1="3685.2964" x2="1646.6304" y2="3054.4395">
		<stop  offset="0" style="stop-color:#FAF4F0"/>
		<stop  offset="0.2612" style="stop-color:#C8AAFF"/>
		<stop  offset="0.5" style="stop-color:#9D4EDD"/>
		<stop  offset="0.5283" style="stop-color:#8E3DDD"/>
		<stop  offset="0.5812" style="stop-color:#7822DC"/>
		<stop  offset="0.6353" style="stop-color:#690FDC"/>
		<stop  offset="0.6908" style="stop-color:#5F04DC"/>
		<stop  offset="0.75" style="stop-color:#5C00DC"/>
		<stop  offset="0.7976" style="stop-color:#770AB9"/>
		<stop  offset="0.9374" style="stop-color:#C42655"/>
		<stop  offset="1" style="stop-color:#E2312D"/>
	</linearGradient>
	<path style="fill:url(#SVGID_00000129180805075983398260000002007395285152379020_);" d="M1371.4,3168.71h121.11
		c5.03,0,9.11-4.08,9.11-9.11c0-66.89-54.22-121.11-121.11-121.11h-9.11h0c-71.91,0-130.21,58.3-130.21,130.21h-121.11
		c-5.03,0-9.11,4.08-9.11,9.11c0,66.89,54.22,121.11,121.11,121.11h9.11h0C1313.1,3298.93,1371.4,3240.63,1371.4,3168.71z"/>
	
		<linearGradient id="SVGID_00000061463975065904816560000017302259950263413917_" gradientUnits="userSpaceOnUse" x1="-273.8885" y1="3561.2173" x2="1604.9688" y2="2930.3601">
		<stop  offset="0" style="stop-color:#FAF4F0"/>
		<stop  offset="0.2612" style="stop-color:#C8AAFF"/>
		<stop  offset="0.5" style="stop-color:#9D4EDD"/>
		<stop  offset="0.5283" style="stop-color:#8E3DDD"/>
		<stop  offset="0.5812" style="stop-color:#7822DC"/>
		<stop  offset="0.6353" style="stop-color:#690FDC"/>
		<stop  offset="0.6908" style="stop-color:#5F04DC"/>
		<stop  offset="0.75" style="stop-color:#5C00DC"/>
		<stop  offset="0.7976" style="stop-color:#770AB9"/>
		<stop  offset="0.9374" style="stop-color:#C42655"/>
		<stop  offset="1" style="stop-color:#E2312D"/>
	</linearGradient>
	<path style="fill:url(#SVGID_00000061463975065904816560000017302259950263413917_);" d="M941.14,3298.93L941.14,3298.93
		L941.14,3298.93c71.91,0,130.21-58.3,130.21-130.21V3058.5c0-11.05-8.95-20-20-20H941.14H830.93c-11.05,0-20,8.95-20,20v110.21
		C810.93,3240.63,869.23,3298.93,941.14,3298.93z"/>
	
		<linearGradient id="SVGID_00000142146479909438038610000006107394392259033520_" gradientUnits="userSpaceOnUse" x1="-300.7325" y1="3481.2688" x2="1578.1246" y2="2850.4116">
		<stop  offset="0" style="stop-color:#FAF4F0"/>
		<stop  offset="0.2612" style="stop-color:#C8AAFF"/>
		<stop  offset="0.5" style="stop-color:#9D4EDD"/>
		<stop  offset="0.5283" style="stop-color:#8E3DDD"/>
		<stop  offset="0.5812" style="stop-color:#7822DC"/>
		<stop  offset="0.6353" style="stop-color:#690FDC"/>
		<stop  offset="0.6908" style="stop-color:#5F04DC"/>
		<stop  offset="0.75" style="stop-color:#5C00DC"/>
		<stop  offset="0.7976" style="stop-color:#770AB9"/>
		<stop  offset="0.9374" style="stop-color:#C42655"/>
		<stop  offset="1" style="stop-color:#E2312D"/>
	</linearGradient>
	<path style="fill:url(#SVGID_00000142146479909438038610000006107394392259033520_);" d="M641.1,3045.2c0-5.03-4.08-9.11-9.11-9.11
		h0c-66.89,0-121.11,54.22-121.11,121.11v9.11c0,71.91,58.3,130.21,130.21,130.21h0c71.91,0,130.21-58.3,130.21-130.21H641.1V3045.2
		z"/>
</g>
<line class="st1" x1="4086.86" y1="6675.43" x2="2166.86" y2="6675.43"/>
<rect x="4402.29" class="st0" width="1920" height="1080"/>
<rect x="4402.29" y="-1398.86" class="st0" width="1920" height="1080"/>
<rect x="4402.29" y="1357.71" class="st0" width="1920" height="1080"/>
<g>
	<path class="st1" d="M5052.84,254L5052.84,254L5052.84,254c-157.95,0-286,128.05-286,286v0v0c0,157.95,128.05,286,286,286l0,0h266
		c11.05,0,20-8.95,20-20V540v0C5338.84,382.05,5210.79,254,5052.84,254z"/>
	<path class="st1" d="M5691.73,254h-20l0,0c-157.95,0-286,128.05-286,286v0v20c0,146.91,119.09,266,266,266l0,0
		c11.05,0,20-8.95,20-20V540l266,0c11.05,0,20-8.95,20-20v0C5957.73,373.09,5838.64,254,5691.73,254z"/>
</g>
<g>
	<path class="st1" d="M4743.35-954.91L4743.35-954.91h110.21c11.05,0,20-8.95,20-20v-110.21v0c0-71.91-58.3-130.21-130.21-130.21
		l0,0l0,0c-71.92,0-130.21,58.3-130.21,130.21v0v0C4613.14-1013.2,4671.43-954.91,4743.35-954.91z"/>
	<path class="st1" d="M5813.3-891.38L5813.3-891.38L5813.3-891.38c-71.92,0-130.21,58.3-130.21,130.21v0v0
		c0,71.91,58.3,130.21,130.21,130.21h0v-130.21l130.21,0v0C5943.51-833.08,5885.21-891.38,5813.3-891.38z"/>
	<path class="st1" d="M5052.49-891.38h-9.11l0,0c-71.92,0-130.21,58.3-130.21,130.21v0v9.11c0,66.89,54.22,121.11,121.11,121.11l0,0
		c5.03,0,9.11-4.08,9.11-9.11v-121.11l121.11,0c5.03,0,9.11-4.08,9.11-9.11v0C5173.6-837.16,5119.38-891.38,5052.49-891.38z"/>
	<path class="st1" d="M5623.47-891.38h-90.21c-11.05,0-20,8.95-20,20v110.21v110.21c0,11.05,8.95,20,20,20h90.21
		c11.05,0,20-8.95,20-20v-110.21v-110.21C5643.47-882.43,5634.51-891.38,5623.47-891.38z"/>
	<path class="st1" d="M5453.64-761.17h-110.21v-110.21c0-11.05-8.95-20-20-20h-90.21c-11.05,0-20,8.95-20,20v110.21v0
		c0,71.91,58.3,130.21,130.21,130.21h0h110.21c11.05,0,20-8.95,20-20v-90.21C5473.64-752.21,5464.69-761.17,5453.64-761.17z"/>
	<path class="st1" d="M6223.55-761.17h-110.21v-110.21c0-11.05-8.95-20-20-20h-90.21c-11.05,0-20,8.95-20,20v110.21v0
		c0,71.91,58.3,130.21,130.21,130.21l0,0h110.21c11.05,0,20-8.95,20-20v-90.21C6243.55-752.21,6234.59-761.17,6223.55-761.17z"/>
	<path class="st1" d="M5903.9-1091.82L5903.9-1091.82c0-66.89-54.22-121.11-121.11-121.11h-9.11l0,0
		c-71.91,0-130.21,58.3-130.21,130.21v0h-121.11c-5.03,0-9.11,4.08-9.11,9.11v0c0,66.89,54.22,121.11,121.11,121.11h9.11h0
		c71.91,0,130.21-58.3,130.21-130.21v0h121.11C5899.82-1082.71,5903.9-1086.79,5903.9-1091.82z"/>
	<path class="st1" d="M5453.64-1212.93h-110.21h-110.21c-11.05,0-20,8.95-20,20v110.21v0c0,71.91,58.3,130.21,130.21,130.21h0l0,0
		c71.91,0,130.21-58.3,130.21-130.21v0v-110.21C5473.64-1203.97,5464.69-1212.93,5453.64-1212.93z"/>
	<path class="st1" d="M5043.39-954.91L5043.39-954.91c71.92,0,130.21-58.3,130.21-130.21v0h-130.21v-121.11
		c0-5.03-4.08-9.11-9.11-9.11l0,0c-66.89,0-121.11,54.22-121.11,121.11v9.11v0C4913.18-1013.2,4971.47-954.91,5043.39-954.91
		L5043.39-954.91z"/>
</g>
<path class="st1" d="M4540.44,2015.04L4540.44,2015.04h69.11c6.93,0,12.54-5.62,12.54-12.54v-69.11l0,0
	c0-45.1-36.56-81.66-81.66-81.66l0,0l0,0c-45.1,0-81.66,36.56-81.66,81.66l0,0v0C4458.78,1978.49,4495.34,2015.04,4540.44,2015.04z"
	/>
<path class="st1" d="M5995.98,1851.73L5995.98,1851.73L5995.98,1851.73c-45.1,0-81.66,36.56-81.66,81.66v0v0
	c0,45.1,36.56,81.66,81.66,81.66l0,0v-81.66l81.66,0v0C6077.63,1888.29,6041.08,1851.73,5995.98,1851.73z"/>
<path class="st1" d="M5518.89,1851.73h-5.71l0,0c-45.1,0-81.66,36.56-81.66,81.66v0v5.71c0,41.94,34,75.95,75.95,75.95l0,0
	c3.15,0,5.71-2.56,5.71-5.71v-75.95l75.95,0c3.15,0,5.71-2.56,5.71-5.71l0,0C5594.83,1885.74,5560.83,1851.73,5518.89,1851.73z"/>
<path class="st1" d="M5876.94,1851.73h-56.57c-6.93,0-12.54,5.62-12.54,12.54v69.11v69.11c0,6.93,5.62,12.54,12.54,12.54h56.57
	c6.93,0,12.54-5.62,12.54-12.54v-69.11v-69.11C5889.48,1857.35,5883.87,1851.73,5876.94,1851.73z"/>
<path class="st1" d="M5770.44,1933.39h-69.11v-69.11c0-6.93-5.62-12.54-12.54-12.54h-56.57c-6.93,0-12.54,5.62-12.54,12.54v69.11v0
	c0,45.1,36.56,81.66,81.66,81.66l0,0h69.11c6.93,0,12.54-5.62,12.54-12.54v-56.57C5782.98,1939,5777.37,1933.39,5770.44,1933.39z"/>
<path class="st1" d="M6253.24,1933.39h-69.11v-69.11c0-6.93-5.62-12.54-12.54-12.54h-56.57c-6.93,0-12.54,5.62-12.54,12.54v69.11v0
	c0,45.1,36.56,81.66,81.66,81.66l0,0h69.11c6.93,0,12.54-5.62,12.54-12.54v-56.57C6265.79,1939,6260.17,1933.39,6253.24,1933.39z"/>
<path class="st1" d="M5268.21,1929.19L5268.21,1929.19c0-41.94-34-75.95-75.95-75.95h-5.71l0,0c-45.1,0-81.66,36.56-81.66,81.66v0
	h-75.95c-3.15,0-5.71,2.56-5.71,5.71l0,0c0,41.94,34,75.95,75.95,75.95h5.71l0,0c45.1,0,81.66-36.56,81.66-81.66l0,0h75.95
	C5265.65,1934.9,5268.21,1932.34,5268.21,1929.19z"/>
<path class="st1" d="M4985.86,1853.24h-69.11h-69.11c-6.93,0-12.54,5.62-12.54,12.54v69.11l0,0c0,45.1,36.56,81.66,81.66,81.66l0,0
	l0,0c45.1,0,81.66-36.56,81.66-81.66l0,0v-69.11C4998.4,1858.86,4992.79,1853.24,4985.86,1853.24z"/>
<path class="st1" d="M4728.59,2015.04L4728.59,2015.04c45.1,0,81.66-36.56,81.66-81.66v0h-81.66v-75.95c0-3.15-2.56-5.71-5.71-5.71
	l0,0c-41.94,0-75.95,34-75.95,75.95v5.71v0C4646.94,1978.49,4683.5,2015.04,4728.59,2015.04L4728.59,2015.04z"/>
<rect x="2166.86" class="st0" width="1920" height="1080"/>
<rect x="2166.86" y="-1398.86" class="st0" width="1920" height="1080"/>
<rect x="2166.86" y="1357.71" class="st0" width="1920" height="1080"/>
<g>
	<path class="st14" d="M2817.41,254L2817.41,254L2817.41,254c-157.95,0-286,128.05-286,286v0v0c0,157.95,128.05,286,286,286h0h266
		c11.05,0,20-8.95,20-20V540v0C3103.41,382.05,2975.36,254,2817.41,254z"/>
	<path class="st14" d="M3456.31,254h-20h0c-157.95,0-286,128.05-286,286v0v20c0,146.91,119.09,266,266,266l0,0
		c11.05,0,20-8.95,20-20V540l266,0c11.05,0,20-8.95,20-20v0C3722.31,373.09,3603.21,254,3456.31,254z"/>
</g>
<g>
	<path class="st14" d="M2507.92-954.91L2507.92-954.91h110.21c11.05,0,20-8.95,20-20v-110.21v0c0-71.91-58.3-130.21-130.21-130.21
		l0,0h0c-71.91,0-130.21,58.3-130.21,130.21v0v0C2377.71-1013.2,2436.01-954.91,2507.92-954.91z"/>
	<path class="st14" d="M3577.87-891.38L3577.87-891.38L3577.87-891.38c-71.92,0-130.21,58.3-130.21,130.21v0v0
		c0,71.91,58.3,130.21,130.21,130.21h0v-130.21l130.21,0v0C3708.08-833.08,3649.78-891.38,3577.87-891.38z"/>
	<path class="st14" d="M2817.07-891.38h-9.11l0,0c-71.91,0-130.21,58.3-130.21,130.21v0v9.11c0,66.89,54.22,121.11,121.11,121.11
		l0,0c5.03,0,9.11-4.08,9.11-9.11v-121.11l121.11,0c5.03,0,9.11-4.08,9.11-9.11v0C2938.17-837.16,2883.95-891.38,2817.07-891.38z"/>
	<path class="st14" d="M3388.04-891.38h-90.21c-11.05,0-20,8.95-20,20v110.21v110.21c0,11.05,8.95,20,20,20h90.21
		c11.05,0,20-8.95,20-20v-110.21v-110.21C3408.04-882.43,3399.09-891.38,3388.04-891.38z"/>
	<path class="st14" d="M3218.21-761.17H3108v-110.21c0-11.05-8.95-20-20-20h-90.21c-11.05,0-20,8.95-20,20v110.21v0
		c0,71.91,58.3,130.21,130.21,130.21h0h110.21c11.05,0,20-8.95,20-20v-90.21C3238.21-752.21,3229.26-761.17,3218.21-761.17z"/>
	<path class="st14" d="M3988.12-761.17h-110.21v-110.21c0-11.05-8.95-20-20-20h-90.21c-11.05,0-20,8.95-20,20v110.21v0
		c0,71.91,58.3,130.21,130.21,130.21l0,0h110.21c11.05,0,20-8.95,20-20v-90.21C4008.12-752.21,3999.17-761.17,3988.12-761.17z"/>
	<path class="st14" d="M3668.47-1091.82L3668.47-1091.82c0-66.89-54.22-121.11-121.11-121.11h-9.11l0,0
		c-71.91,0-130.21,58.3-130.21,130.21v0h-121.11c-5.03,0-9.11,4.08-9.11,9.11v0c0,66.89,54.22,121.11,121.11,121.11h9.11l0,0
		c71.91,0,130.21-58.3,130.21-130.21v0h121.11C3664.39-1082.71,3668.47-1086.79,3668.47-1091.82z"/>
	<path class="st14" d="M3218.21-1212.93H3108h-110.21c-11.05,0-20,8.95-20,20v110.21v0c0,71.91,58.3,130.21,130.21,130.21l0,0l0,0
		c71.91,0,130.21-58.3,130.21-130.21v0v-110.21C3238.21-1203.97,3229.26-1212.93,3218.21-1212.93z"/>
	<path class="st14" d="M2807.96-954.91L2807.96-954.91c71.92,0,130.21-58.3,130.21-130.21v0h-130.21v-121.11
		c0-5.03-4.08-9.11-9.11-9.11l0,0c-66.89,0-121.11,54.22-121.11,121.11v9.11v0C2677.75-1013.2,2736.05-954.91,2807.96-954.91
		L2807.96-954.91z"/>
</g>
<path class="st14" d="M2305.01,2015.04L2305.01,2015.04h69.11c6.93,0,12.54-5.62,12.54-12.54v-69.11l0,0
	c0-45.1-36.56-81.66-81.66-81.66h0l0,0c-45.1,0-81.66,36.56-81.66,81.66l0,0v0C2223.36,1978.49,2259.91,2015.04,2305.01,2015.04z"/>
<path class="st14" d="M3760.55,1851.73L3760.55,1851.73L3760.55,1851.73c-45.1,0-81.66,36.56-81.66,81.66v0v0
	c0,45.1,36.56,81.66,81.66,81.66l0,0v-81.66l81.66,0v0C3842.21,1888.29,3805.65,1851.73,3760.55,1851.73z"/>
<path class="st14" d="M3283.46,1851.73h-5.71l0,0c-45.1,0-81.66,36.56-81.66,81.66v0v5.71c0,41.94,34,75.95,75.95,75.95l0,0
	c3.15,0,5.71-2.56,5.71-5.71v-75.95l75.95,0c3.15,0,5.71-2.56,5.71-5.71l0,0C3359.4,1885.74,3325.4,1851.73,3283.46,1851.73z"/>
<path class="st14" d="M3641.51,1851.73h-56.57c-6.93,0-12.54,5.62-12.54,12.54v69.11v69.11c0,6.93,5.62,12.54,12.54,12.54h56.57
	c6.93,0,12.54-5.62,12.54-12.54v-69.11v-69.11C3654.05,1857.35,3648.44,1851.73,3641.51,1851.73z"/>
<path class="st14" d="M3535.01,1933.39h-69.11v-69.11c0-6.93-5.62-12.54-12.54-12.54h-56.57c-6.93,0-12.54,5.62-12.54,12.54v69.11v0
	c0,45.1,36.56,81.66,81.66,81.66l0,0h69.11c6.93,0,12.54-5.62,12.54-12.54v-56.57C3547.56,1939,3541.94,1933.39,3535.01,1933.39z"/>
<path class="st14" d="M4017.82,1933.39h-69.11v-69.11c0-6.93-5.62-12.54-12.54-12.54h-56.57c-6.93,0-12.54,5.62-12.54,12.54v69.11v0
	c0,45.1,36.56,81.66,81.66,81.66l0,0h69.11c6.93,0,12.54-5.62,12.54-12.54v-56.57C4030.36,1939,4024.74,1933.39,4017.82,1933.39z"/>
<path class="st14" d="M3032.78,1929.19L3032.78,1929.19c0-41.94-34-75.95-75.95-75.95h-5.71l0,0c-45.1,0-81.66,36.56-81.66,81.66v0
	h-75.95c-3.15,0-5.71,2.56-5.71,5.71l0,0c0,41.94,34,75.95,75.95,75.95h5.71l0,0c45.1,0,81.66-36.56,81.66-81.66l0,0h75.95
	C3030.22,1934.9,3032.78,1932.34,3032.78,1929.19z"/>
<path class="st14" d="M2750.43,1853.24h-69.11h-69.11c-6.93,0-12.54,5.62-12.54,12.54v69.11l0,0c0,45.1,36.56,81.66,81.66,81.66l0,0
	h0c45.1,0,81.66-36.56,81.66-81.66l0,0v-69.11C2762.97,1858.86,2757.36,1853.24,2750.43,1853.24z"/>
<path class="st14" d="M2493.16,2015.04L2493.16,2015.04c45.1,0,81.66-36.56,81.66-81.66v0h-81.66v-75.95c0-3.15-2.56-5.71-5.71-5.71
	h0c-41.94,0-75.95,34-75.95,75.95v5.71v0C2411.51,1978.49,2448.07,2015.04,2493.16,2015.04L2493.16,2015.04z"/>
<linearGradient id="SVGID_00000021103142745509678110000002631670063459202958_" gradientUnits="userSpaceOnUse" x1="-234.4005" y1="6329.5537" x2="1589.5995" y2="5671.2681">
	<stop  offset="0" style="stop-color:#FAF4F0"/>
	<stop  offset="0.2612" style="stop-color:#C8AAFF"/>
	<stop  offset="0.5" style="stop-color:#9D4EDD"/>
	<stop  offset="0.5283" style="stop-color:#8E3DDD"/>
	<stop  offset="0.5812" style="stop-color:#7822DC"/>
	<stop  offset="0.6353" style="stop-color:#690FDC"/>
	<stop  offset="0.6908" style="stop-color:#5F04DC"/>
	<stop  offset="0.75" style="stop-color:#5C00DC"/>
	<stop  offset="0.7976" style="stop-color:#770AB9"/>
	<stop  offset="0.9374" style="stop-color:#C42655"/>
	<stop  offset="1" style="stop-color:#E2312D"/>
</linearGradient>
<path style="fill:url(#SVGID_00000021103142745509678110000002631670063459202958_);" d="M138.15,6266.47L138.15,6266.47h69.11
	c6.93,0,12.54-5.62,12.54-12.54v-69.11l0,0c0-45.1-36.56-81.66-81.66-81.66h0h0c-45.1,0-81.66,36.56-81.66,81.66l0,0l0,0
	C56.5,6229.92,93.06,6266.47,138.15,6266.47z"/>
<linearGradient id="SVGID_00000081643790612636401610000015853586080345839505_" gradientUnits="userSpaceOnUse" x1="-70.7732" y1="6782.938" x2="1753.2268" y2="6124.6523">
	<stop  offset="0" style="stop-color:#FAF4F0"/>
	<stop  offset="0.2612" style="stop-color:#C8AAFF"/>
	<stop  offset="0.5" style="stop-color:#9D4EDD"/>
	<stop  offset="0.5283" style="stop-color:#8E3DDD"/>
	<stop  offset="0.5812" style="stop-color:#7822DC"/>
	<stop  offset="0.6353" style="stop-color:#690FDC"/>
	<stop  offset="0.6908" style="stop-color:#5F04DC"/>
	<stop  offset="0.75" style="stop-color:#5C00DC"/>
	<stop  offset="0.7976" style="stop-color:#770AB9"/>
	<stop  offset="0.9374" style="stop-color:#C42655"/>
	<stop  offset="1" style="stop-color:#E2312D"/>
</linearGradient>
<path style="fill:url(#SVGID_00000081643790612636401610000015853586080345839505_);" d="M1593.69,6103.16L1593.69,6103.16
	L1593.69,6103.16c-45.1,0-81.66,36.56-81.66,81.66l0,0l0,0c0,45.1,36.56,81.66,81.66,81.66h0v-81.66h81.66l0,0
	C1675.35,6139.72,1638.79,6103.16,1593.69,6103.16z"/>
<linearGradient id="SVGID_00000150068287583228014060000008816827532635172507_" gradientUnits="userSpaceOnUse" x1="-126.6826" y1="6628.022" x2="1697.3174" y2="5969.7363">
	<stop  offset="0" style="stop-color:#FAF4F0"/>
	<stop  offset="0.2612" style="stop-color:#C8AAFF"/>
	<stop  offset="0.5" style="stop-color:#9D4EDD"/>
	<stop  offset="0.5283" style="stop-color:#8E3DDD"/>
	<stop  offset="0.5812" style="stop-color:#7822DC"/>
	<stop  offset="0.6353" style="stop-color:#690FDC"/>
	<stop  offset="0.6908" style="stop-color:#5F04DC"/>
	<stop  offset="0.75" style="stop-color:#5C00DC"/>
	<stop  offset="0.7976" style="stop-color:#770AB9"/>
	<stop  offset="0.9374" style="stop-color:#C42655"/>
	<stop  offset="1" style="stop-color:#E2312D"/>
</linearGradient>
<path style="fill:url(#SVGID_00000150068287583228014060000008816827532635172507_);" d="M1116.6,6103.16h-5.71h0
	c-45.1,0-81.66,36.56-81.66,81.66l0,0v5.71c0,41.94,34,75.95,75.95,75.95h0c3.15,0,5.71-2.56,5.71-5.71v-75.95h75.95
	c3.15,0,5.71-2.56,5.71-5.71l0,0C1192.55,6137.16,1158.54,6103.16,1116.6,6103.16z"/>
<linearGradient id="SVGID_00000055677834242406241810000013395518288255504262_" gradientUnits="userSpaceOnUse" x1="-86.9241" y1="6738.1865" x2="1737.0759" y2="6079.9009">
	<stop  offset="0" style="stop-color:#FAF4F0"/>
	<stop  offset="0.2612" style="stop-color:#C8AAFF"/>
	<stop  offset="0.5" style="stop-color:#9D4EDD"/>
	<stop  offset="0.5283" style="stop-color:#8E3DDD"/>
	<stop  offset="0.5812" style="stop-color:#7822DC"/>
	<stop  offset="0.6353" style="stop-color:#690FDC"/>
	<stop  offset="0.6908" style="stop-color:#5F04DC"/>
	<stop  offset="0.75" style="stop-color:#5C00DC"/>
	<stop  offset="0.7976" style="stop-color:#770AB9"/>
	<stop  offset="0.9374" style="stop-color:#C42655"/>
	<stop  offset="1" style="stop-color:#E2312D"/>
</linearGradient>
<path style="fill:url(#SVGID_00000055677834242406241810000013395518288255504262_);" d="M1474.65,6103.16h-56.57
	c-6.93,0-12.54,5.62-12.54,12.54v69.11v69.11c0,6.93,5.62,12.54,12.54,12.54h56.57c6.93,0,12.54-5.62,12.54-12.54v-69.11v-69.11
	C1487.2,6108.78,1481.58,6103.16,1474.65,6103.16z"/>
<linearGradient id="SVGID_00000155139767197383574580000007441687356647471551_" gradientUnits="userSpaceOnUse" x1="-103.9019" y1="6691.144" x2="1720.0981" y2="6032.8584">
	<stop  offset="0" style="stop-color:#FAF4F0"/>
	<stop  offset="0.2612" style="stop-color:#C8AAFF"/>
	<stop  offset="0.5" style="stop-color:#9D4EDD"/>
	<stop  offset="0.5283" style="stop-color:#8E3DDD"/>
	<stop  offset="0.5812" style="stop-color:#7822DC"/>
	<stop  offset="0.6353" style="stop-color:#690FDC"/>
	<stop  offset="0.6908" style="stop-color:#5F04DC"/>
	<stop  offset="0.75" style="stop-color:#5C00DC"/>
	<stop  offset="0.7976" style="stop-color:#770AB9"/>
	<stop  offset="0.9374" style="stop-color:#C42655"/>
	<stop  offset="1" style="stop-color:#E2312D"/>
</linearGradient>
<path style="fill:url(#SVGID_00000155139767197383574580000007441687356647471551_);" d="M1368.16,6184.82h-69.11v-69.11
	c0-6.93-5.62-12.54-12.54-12.54h-56.57c-6.93,0-12.54,5.62-12.54,12.54v69.11l0,0c0,45.1,36.56,81.66,81.66,81.66l0,0h69.11
	c6.93,0,12.54-5.62,12.54-12.54v-56.57C1380.7,6190.43,1375.08,6184.82,1368.16,6184.82z"/>
<linearGradient id="SVGID_00000178178866107268981040000009595479744288434864_" gradientUnits="userSpaceOnUse" x1="-48.2636" y1="6845.3081" x2="1775.7365" y2="6187.0225">
	<stop  offset="0" style="stop-color:#FAF4F0"/>
	<stop  offset="0.2612" style="stop-color:#C8AAFF"/>
	<stop  offset="0.5" style="stop-color:#9D4EDD"/>
	<stop  offset="0.5283" style="stop-color:#8E3DDD"/>
	<stop  offset="0.5812" style="stop-color:#7822DC"/>
	<stop  offset="0.6353" style="stop-color:#690FDC"/>
	<stop  offset="0.6908" style="stop-color:#5F04DC"/>
	<stop  offset="0.75" style="stop-color:#5C00DC"/>
	<stop  offset="0.7976" style="stop-color:#770AB9"/>
	<stop  offset="0.9374" style="stop-color:#C42655"/>
	<stop  offset="1" style="stop-color:#E2312D"/>
</linearGradient>
<path style="fill:url(#SVGID_00000178178866107268981040000009595479744288434864_);" d="M1850.96,6184.82h-69.11v-69.11
	c0-6.93-5.62-12.54-12.54-12.54h-56.57c-6.93,0-12.54,5.62-12.54,12.54v69.11l0,0c0,45.1,36.56,81.66,81.66,81.66l0,0h69.11
	c6.93,0,12.54-5.62,12.54-12.54v-56.57C1863.5,6190.43,1857.89,6184.82,1850.96,6184.82z"/>
<linearGradient id="SVGID_00000047749229662541051990000010220177682001934265_" gradientUnits="userSpaceOnUse" x1="-167.4483" y1="6515.0674" x2="1656.5518" y2="5856.7817">
	<stop  offset="0" style="stop-color:#FAF4F0"/>
	<stop  offset="0.2612" style="stop-color:#C8AAFF"/>
	<stop  offset="0.5" style="stop-color:#9D4EDD"/>
	<stop  offset="0.5283" style="stop-color:#8E3DDD"/>
	<stop  offset="0.5812" style="stop-color:#7822DC"/>
	<stop  offset="0.6353" style="stop-color:#690FDC"/>
	<stop  offset="0.6908" style="stop-color:#5F04DC"/>
	<stop  offset="0.75" style="stop-color:#5C00DC"/>
	<stop  offset="0.7976" style="stop-color:#770AB9"/>
	<stop  offset="0.9374" style="stop-color:#C42655"/>
	<stop  offset="1" style="stop-color:#E2312D"/>
</linearGradient>
<path style="fill:url(#SVGID_00000047749229662541051990000010220177682001934265_);" d="M865.92,6180.62L865.92,6180.62
	c0-41.94-34-75.95-75.95-75.95h-5.71h0c-45.1,0-81.66,36.56-81.66,81.66l0,0h-75.95c-3.15,0-5.71,2.56-5.71,5.71v0
	c0,41.94,34,75.95,75.95,75.95h5.71h0c45.1,0,81.66-36.56,81.66-81.66l0,0h75.95C863.37,6186.33,865.92,6183.77,865.92,6180.62z"/>
<linearGradient id="SVGID_00000002352795108279465700000005594664756712048568_" gradientUnits="userSpaceOnUse" x1="-197.1186" y1="6432.856" x2="1626.8815" y2="5774.5703">
	<stop  offset="0" style="stop-color:#FAF4F0"/>
	<stop  offset="0.2612" style="stop-color:#C8AAFF"/>
	<stop  offset="0.5" style="stop-color:#9D4EDD"/>
	<stop  offset="0.5283" style="stop-color:#8E3DDD"/>
	<stop  offset="0.5812" style="stop-color:#7822DC"/>
	<stop  offset="0.6353" style="stop-color:#690FDC"/>
	<stop  offset="0.6908" style="stop-color:#5F04DC"/>
	<stop  offset="0.75" style="stop-color:#5C00DC"/>
	<stop  offset="0.7976" style="stop-color:#770AB9"/>
	<stop  offset="0.9374" style="stop-color:#C42655"/>
	<stop  offset="1" style="stop-color:#E2312D"/>
</linearGradient>
<path style="fill:url(#SVGID_00000002352795108279465700000005594664756712048568_);" d="M583.57,6104.67h-69.11h-69.11
	c-6.93,0-12.54,5.62-12.54,12.54v69.11l0,0c0,45.1,36.56,81.66,81.66,81.66h0h0c45.1,0,81.66-36.56,81.66-81.66l0,0v-69.11
	C596.12,6110.29,590.5,6104.67,583.57,6104.67z"/>
<linearGradient id="SVGID_00000160878102822816406900000001654382723074378156_" gradientUnits="userSpaceOnUse" x1="-216.2715" y1="6379.7866" x2="1607.7285" y2="5721.501">
	<stop  offset="0" style="stop-color:#FAF4F0"/>
	<stop  offset="0.2612" style="stop-color:#C8AAFF"/>
	<stop  offset="0.5" style="stop-color:#9D4EDD"/>
	<stop  offset="0.5283" style="stop-color:#8E3DDD"/>
	<stop  offset="0.5812" style="stop-color:#7822DC"/>
	<stop  offset="0.6353" style="stop-color:#690FDC"/>
	<stop  offset="0.6908" style="stop-color:#5F04DC"/>
	<stop  offset="0.75" style="stop-color:#5C00DC"/>
	<stop  offset="0.7976" style="stop-color:#770AB9"/>
	<stop  offset="0.9374" style="stop-color:#C42655"/>
	<stop  offset="1" style="stop-color:#E2312D"/>
</linearGradient>
<path style="fill:url(#SVGID_00000160878102822816406900000001654382723074378156_);" d="M326.31,6266.47L326.31,6266.47
	c45.1,0,81.66-36.56,81.66-81.66l0,0h-81.66v-75.95c0-3.15-2.56-5.71-5.71-5.71h0c-41.94,0-75.95,34-75.95,75.95v5.71l0,0
	C244.65,6229.92,281.21,6266.47,326.31,6266.47L326.31,6266.47z"/>
<g id="Logo_violeta_00000143605576497538218890000014024398398585437867_">
	
		<linearGradient id="SVGID_00000009565619958912935150000018021160539862443707_" gradientUnits="userSpaceOnUse" x1="-2521.1206" y1="5006.1797" x2="-674.8348" y2="4625.6079">
		<stop  offset="0" style="stop-color:#9D4EDD"/>
		<stop  offset="0.0261" style="stop-color:#8E3DDD"/>
		<stop  offset="0.0749" style="stop-color:#7822DC"/>
		<stop  offset="0.1248" style="stop-color:#690FDC"/>
		<stop  offset="0.176" style="stop-color:#5F04DC"/>
		<stop  offset="0.2306" style="stop-color:#5C00DC"/>
		<stop  offset="0.2855" style="stop-color:#4C00B7"/>
		<stop  offset="0.4381" style="stop-color:#210053"/>
		<stop  offset="0.5065" style="stop-color:#10002B"/>
		<stop  offset="0.7536" style="stop-color:#03071E"/>
		<stop  offset="1" style="stop-color:#E2312D"/>
	</linearGradient>
	<path style="fill:url(#SVGID_00000009565619958912935150000018021160539862443707_);" d="M-1598.59,4505.43L-1598.59,4505.43
		L-1598.59,4505.43c-157.95,0-286,128.05-286,286v0l0,0c0,157.95,128.05,286,286,286h0h266c11.05,0,20-8.95,20-20v-266v0
		C-1312.59,4633.48-1440.64,4505.43-1598.59,4505.43z"/>
	
		<linearGradient id="SVGID_00000175291149640870821960000011837463935630217108_" gradientUnits="userSpaceOnUse" x1="-2501.7244" y1="5100.2773" x2="-655.4386" y2="4719.7061">
		<stop  offset="0" style="stop-color:#9D4EDD"/>
		<stop  offset="0.0261" style="stop-color:#8E3DDD"/>
		<stop  offset="0.0749" style="stop-color:#7822DC"/>
		<stop  offset="0.1248" style="stop-color:#690FDC"/>
		<stop  offset="0.176" style="stop-color:#5F04DC"/>
		<stop  offset="0.2306" style="stop-color:#5C00DC"/>
		<stop  offset="0.2855" style="stop-color:#4C00B7"/>
		<stop  offset="0.4381" style="stop-color:#210053"/>
		<stop  offset="0.5065" style="stop-color:#10002B"/>
		<stop  offset="0.7536" style="stop-color:#03071E"/>
		<stop  offset="1" style="stop-color:#E2312D"/>
	</linearGradient>
	<path style="fill:url(#SVGID_00000175291149640870821960000011837463935630217108_);" d="M-959.69,4505.43h-20h0
		c-157.95,0-286,128.05-286,286v0v20c0,146.91,119.09,266,266,266l0,0c11.05,0,20-8.95,20-20v-266h266c11.05,0,20-8.95,20-20v0
		C-693.69,4624.52-812.79,4505.43-959.69,4505.43z"/>
</g>
<g>
	
		<linearGradient id="SVGID_00000155147233956104190950000000945806025023188373_" gradientUnits="userSpaceOnUse" x1="-2343.8665" y1="3296.728" x2="-713.5808" y2="2857.0137">
		<stop  offset="0" style="stop-color:#9D4EDD"/>
		<stop  offset="0.0261" style="stop-color:#8E3DDD"/>
		<stop  offset="0.0749" style="stop-color:#7822DC"/>
		<stop  offset="0.1248" style="stop-color:#690FDC"/>
		<stop  offset="0.176" style="stop-color:#5F04DC"/>
		<stop  offset="0.2306" style="stop-color:#5C00DC"/>
		<stop  offset="0.2855" style="stop-color:#4C00B7"/>
		<stop  offset="0.4381" style="stop-color:#210053"/>
		<stop  offset="0.5065" style="stop-color:#10002B"/>
		<stop  offset="0.7536" style="stop-color:#03071E"/>
		<stop  offset="1" style="stop-color:#E2312D"/>
	</linearGradient>
	<path style="fill:url(#SVGID_00000155147233956104190950000000945806025023188373_);" d="M-1908.08,3036.1L-1908.08,3036.1
		c-71.91,0-130.21,58.3-130.21,130.21c0,71.91,58.3,130.21,130.21,130.21h0h110.21c11.05,0,20-8.95,20-20v-110.21
		C-1777.87,3094.39-1836.17,3036.1-1908.08,3036.1z"/>
	
		<linearGradient id="SVGID_00000047746718260988030080000009087977224244739255_" gradientUnits="userSpaceOnUse" x1="-2193.6873" y1="3853.533" x2="-563.4016" y2="3413.8186">
		<stop  offset="0" style="stop-color:#9D4EDD"/>
		<stop  offset="0.0261" style="stop-color:#8E3DDD"/>
		<stop  offset="0.0749" style="stop-color:#7822DC"/>
		<stop  offset="0.1248" style="stop-color:#690FDC"/>
		<stop  offset="0.176" style="stop-color:#5F04DC"/>
		<stop  offset="0.2306" style="stop-color:#5C00DC"/>
		<stop  offset="0.2855" style="stop-color:#4C00B7"/>
		<stop  offset="0.4381" style="stop-color:#210053"/>
		<stop  offset="0.5065" style="stop-color:#10002B"/>
		<stop  offset="0.7536" style="stop-color:#03071E"/>
		<stop  offset="1" style="stop-color:#E2312D"/>
	</linearGradient>
	<path style="fill:url(#SVGID_00000047746718260988030080000009087977224244739255_);" d="M-838.13,3360.05L-838.13,3360.05
		L-838.13,3360.05c-71.91,0-130.21,58.3-130.21,130.21c0,71.92,58.3,130.21,130.21,130.21h0v-130.21h130.21
		C-707.92,3418.35-766.22,3360.05-838.13,3360.05z"/>
	
		<linearGradient id="SVGID_00000087409134524373834860000006598127538035987602_" gradientUnits="userSpaceOnUse" x1="-2246.165" y1="3658.9666" x2="-615.8792" y2="3219.2522">
		<stop  offset="0" style="stop-color:#9D4EDD"/>
		<stop  offset="0.0261" style="stop-color:#8E3DDD"/>
		<stop  offset="0.0749" style="stop-color:#7822DC"/>
		<stop  offset="0.1248" style="stop-color:#690FDC"/>
		<stop  offset="0.176" style="stop-color:#5F04DC"/>
		<stop  offset="0.2306" style="stop-color:#5C00DC"/>
		<stop  offset="0.2855" style="stop-color:#4C00B7"/>
		<stop  offset="0.4381" style="stop-color:#210053"/>
		<stop  offset="0.5065" style="stop-color:#10002B"/>
		<stop  offset="0.7536" style="stop-color:#03071E"/>
		<stop  offset="1" style="stop-color:#E2312D"/>
	</linearGradient>
	<path style="fill:url(#SVGID_00000087409134524373834860000006598127538035987602_);" d="M-1598.93,3360.05h-9.11h0
		c-71.91,0-130.21,58.3-130.21,130.21v9.11c0,66.89,54.22,121.11,121.11,121.11c5.03,0,9.11-4.08,9.11-9.11v-121.11h121.11
		c5.03,0,9.11-4.08,9.11-9.11C-1477.83,3414.27-1532.05,3360.05-1598.93,3360.05z"/>
	
		<linearGradient id="SVGID_00000076563185027515435480000005589636448357305482_" gradientUnits="userSpaceOnUse" x1="-2209.0298" y1="3796.6489" x2="-578.7441" y2="3356.9348">
		<stop  offset="0" style="stop-color:#9D4EDD"/>
		<stop  offset="0.0261" style="stop-color:#8E3DDD"/>
		<stop  offset="0.0749" style="stop-color:#7822DC"/>
		<stop  offset="0.1248" style="stop-color:#690FDC"/>
		<stop  offset="0.176" style="stop-color:#5F04DC"/>
		<stop  offset="0.2306" style="stop-color:#5C00DC"/>
		<stop  offset="0.2855" style="stop-color:#4C00B7"/>
		<stop  offset="0.4381" style="stop-color:#210053"/>
		<stop  offset="0.5065" style="stop-color:#10002B"/>
		<stop  offset="0.7536" style="stop-color:#03071E"/>
		<stop  offset="1" style="stop-color:#E2312D"/>
	</linearGradient>
	<path style="fill:url(#SVGID_00000076563185027515435480000005589636448357305482_);" d="M-1027.96,3360.05h-90.21
		c-11.05,0-20,8.95-20,20v110.21v110.21c0,11.05,8.95,20,20,20h90.21c11.05,0,20-8.95,20-20v-110.21v-110.21
		C-1007.96,3369-1016.91,3360.05-1027.96,3360.05z"/>
	
		<linearGradient id="SVGID_00000026885407953022278870000011506104065570713234_" gradientUnits="userSpaceOnUse" x1="-2224.9614" y1="3737.5808" x2="-594.6757" y2="3297.8665">
		<stop  offset="0" style="stop-color:#9D4EDD"/>
		<stop  offset="0.0261" style="stop-color:#8E3DDD"/>
		<stop  offset="0.0749" style="stop-color:#7822DC"/>
		<stop  offset="0.1248" style="stop-color:#690FDC"/>
		<stop  offset="0.176" style="stop-color:#5F04DC"/>
		<stop  offset="0.2306" style="stop-color:#5C00DC"/>
		<stop  offset="0.2855" style="stop-color:#4C00B7"/>
		<stop  offset="0.4381" style="stop-color:#210053"/>
		<stop  offset="0.5065" style="stop-color:#10002B"/>
		<stop  offset="0.7536" style="stop-color:#03071E"/>
		<stop  offset="1" style="stop-color:#E2312D"/>
	</linearGradient>
	<path style="fill:url(#SVGID_00000026885407953022278870000011506104065570713234_);" d="M-1197.79,3490.26H-1308v-110.21
		c0-11.05-8.95-20-20-20h-90.21c-11.05,0-20,8.95-20,20v110.21c0,71.92,58.3,130.21,130.21,130.21h0h110.21c11.05,0,20-8.95,20-20
		v-90.21C-1177.79,3499.22-1186.74,3490.26-1197.79,3490.26z"/>
	
		<linearGradient id="SVGID_00000107569633126497063920000009968047914892266127_" gradientUnits="userSpaceOnUse" x1="-2172.7512" y1="3931.155" x2="-542.4656" y2="3491.4407">
		<stop  offset="0" style="stop-color:#9D4EDD"/>
		<stop  offset="0.0261" style="stop-color:#8E3DDD"/>
		<stop  offset="0.0749" style="stop-color:#7822DC"/>
		<stop  offset="0.1248" style="stop-color:#690FDC"/>
		<stop  offset="0.176" style="stop-color:#5F04DC"/>
		<stop  offset="0.2306" style="stop-color:#5C00DC"/>
		<stop  offset="0.2855" style="stop-color:#4C00B7"/>
		<stop  offset="0.4381" style="stop-color:#210053"/>
		<stop  offset="0.5065" style="stop-color:#10002B"/>
		<stop  offset="0.7536" style="stop-color:#03071E"/>
		<stop  offset="1" style="stop-color:#E2312D"/>
	</linearGradient>
	<path style="fill:url(#SVGID_00000107569633126497063920000009968047914892266127_);" d="M-427.88,3490.26h-110.21v-110.21
		c0-11.05-8.95-20-20-20h-90.21c-11.05,0-20,8.95-20,20v110.21c0,71.92,58.3,130.21,130.21,130.21h110.21c11.05,0,20-8.95,20-20
		v-90.21C-407.88,3499.22-416.83,3490.26-427.88,3490.26z"/>
	
		<linearGradient id="SVGID_00000131368258008416639630000017462652363279532692_" gradientUnits="userSpaceOnUse" x1="-2281.0447" y1="3529.646" x2="-650.759" y2="3089.9319">
		<stop  offset="0" style="stop-color:#9D4EDD"/>
		<stop  offset="0.0261" style="stop-color:#8E3DDD"/>
		<stop  offset="0.0749" style="stop-color:#7822DC"/>
		<stop  offset="0.1248" style="stop-color:#690FDC"/>
		<stop  offset="0.176" style="stop-color:#5F04DC"/>
		<stop  offset="0.2306" style="stop-color:#5C00DC"/>
		<stop  offset="0.2855" style="stop-color:#4C00B7"/>
		<stop  offset="0.4381" style="stop-color:#210053"/>
		<stop  offset="0.5065" style="stop-color:#10002B"/>
		<stop  offset="0.7536" style="stop-color:#03071E"/>
		<stop  offset="1" style="stop-color:#E2312D"/>
	</linearGradient>
	<path style="fill:url(#SVGID_00000131368258008416639630000017462652363279532692_);" d="M-877.75,3168.71h121.11
		c5.03,0,9.11-4.08,9.11-9.11c0-66.89-54.22-121.11-121.11-121.11h-9.11h0c-71.91,0-130.21,58.3-130.21,130.21h-121.11
		c-5.03,0-9.11,4.08-9.11,9.11c0,66.89,54.22,121.11,121.11,121.11h9.11h0C-936.05,3298.93-877.75,3240.63-877.75,3168.71z"/>
	
		<linearGradient id="SVGID_00000104684137258174329170000016826227189427896254_" gradientUnits="userSpaceOnUse" x1="-2309.0449" y1="3425.8325" x2="-678.7592" y2="2986.1184">
		<stop  offset="0" style="stop-color:#9D4EDD"/>
		<stop  offset="0.0261" style="stop-color:#8E3DDD"/>
		<stop  offset="0.0749" style="stop-color:#7822DC"/>
		<stop  offset="0.1248" style="stop-color:#690FDC"/>
		<stop  offset="0.176" style="stop-color:#5F04DC"/>
		<stop  offset="0.2306" style="stop-color:#5C00DC"/>
		<stop  offset="0.2855" style="stop-color:#4C00B7"/>
		<stop  offset="0.4381" style="stop-color:#210053"/>
		<stop  offset="0.5065" style="stop-color:#10002B"/>
		<stop  offset="0.7536" style="stop-color:#03071E"/>
		<stop  offset="1" style="stop-color:#E2312D"/>
	</linearGradient>
	<path style="fill:url(#SVGID_00000104684137258174329170000016826227189427896254_);" d="M-1308,3298.93L-1308,3298.93
		L-1308,3298.93c71.91,0,130.21-58.3,130.21-130.21V3058.5c0-11.05-8.95-20-20-20H-1308h-110.21c-11.05,0-20,8.95-20,20v110.21
		C-1438.21,3240.63-1379.91,3298.93-1308,3298.93z"/>
	
		<linearGradient id="SVGID_00000025422986432215460720000002158879318834958219_" gradientUnits="userSpaceOnUse" x1="-2327.0256" y1="3359.1675" x2="-696.7399" y2="2919.4531">
		<stop  offset="0" style="stop-color:#9D4EDD"/>
		<stop  offset="0.0261" style="stop-color:#8E3DDD"/>
		<stop  offset="0.0749" style="stop-color:#7822DC"/>
		<stop  offset="0.1248" style="stop-color:#690FDC"/>
		<stop  offset="0.176" style="stop-color:#5F04DC"/>
		<stop  offset="0.2306" style="stop-color:#5C00DC"/>
		<stop  offset="0.2855" style="stop-color:#4C00B7"/>
		<stop  offset="0.4381" style="stop-color:#210053"/>
		<stop  offset="0.5065" style="stop-color:#10002B"/>
		<stop  offset="0.7536" style="stop-color:#03071E"/>
		<stop  offset="1" style="stop-color:#E2312D"/>
	</linearGradient>
	<path style="fill:url(#SVGID_00000025422986432215460720000002158879318834958219_);" d="M-1608.04,3045.2
		c0-5.03-4.08-9.11-9.11-9.11h0c-66.89,0-121.11,54.22-121.11,121.11v9.11c0,71.91,58.3,130.21,130.21,130.21h0
		c71.91,0,130.21-58.3,130.21-130.21h-130.21V3045.2z"/>
</g>
<linearGradient id="SVGID_00000135687788716755470090000001839692697532056718_" gradientUnits="userSpaceOnUse" x1="-2516.6521" y1="6363.5107" x2="-795.5093" y2="5653.7964">
	<stop  offset="0" style="stop-color:#9D4EDD"/>
	<stop  offset="0.0261" style="stop-color:#8E3DDD"/>
	<stop  offset="0.0749" style="stop-color:#7822DC"/>
	<stop  offset="0.1248" style="stop-color:#690FDC"/>
	<stop  offset="0.176" style="stop-color:#5F04DC"/>
	<stop  offset="0.2306" style="stop-color:#5C00DC"/>
	<stop  offset="0.2855" style="stop-color:#4C00B7"/>
	<stop  offset="0.4381" style="stop-color:#210053"/>
	<stop  offset="0.5065" style="stop-color:#10002B"/>
	<stop  offset="0.7536" style="stop-color:#03071E"/>
	<stop  offset="1" style="stop-color:#E2312D"/>
</linearGradient>
<path style="fill:url(#SVGID_00000135687788716755470090000001839692697532056718_);" d="M-2110.99,6266.47L-2110.99,6266.47h69.11
	c6.93,0,12.54-5.62,12.54-12.54v-69.11l0,0c0-45.1-36.56-81.66-81.66-81.66h0l0,0c-45.1,0-81.66,36.56-81.66,81.66l0,0l0,0
	C-2192.64,6229.92-2156.09,6266.47-2110.99,6266.47z"/>
<linearGradient id="SVGID_00000039840345826797742950000008321088248678471310_" gradientUnits="userSpaceOnUse" x1="-2310.3318" y1="6863.8628" x2="-589.1888" y2="6154.1484">
	<stop  offset="0" style="stop-color:#9D4EDD"/>
	<stop  offset="0.0261" style="stop-color:#8E3DDD"/>
	<stop  offset="0.0749" style="stop-color:#7822DC"/>
	<stop  offset="0.1248" style="stop-color:#690FDC"/>
	<stop  offset="0.176" style="stop-color:#5F04DC"/>
	<stop  offset="0.2306" style="stop-color:#5C00DC"/>
	<stop  offset="0.2855" style="stop-color:#4C00B7"/>
	<stop  offset="0.4381" style="stop-color:#210053"/>
	<stop  offset="0.5065" style="stop-color:#10002B"/>
	<stop  offset="0.7536" style="stop-color:#03071E"/>
	<stop  offset="1" style="stop-color:#E2312D"/>
</linearGradient>
<path style="fill:url(#SVGID_00000039840345826797742950000008321088248678471310_);" d="M-655.45,6103.16L-655.45,6103.16
	L-655.45,6103.16c-45.1,0-81.66,36.56-81.66,81.66l0,0l0,0c0,45.1,36.56,81.66,81.66,81.66h0v-81.66h81.66l0,0
	C-573.79,6139.72-610.35,6103.16-655.45,6103.16z"/>
<linearGradient id="SVGID_00000144299801328318820260000002133535552548957327_" gradientUnits="userSpaceOnUse" x1="-2380.8264" y1="6692.9043" x2="-659.6837" y2="5983.1899">
	<stop  offset="0" style="stop-color:#9D4EDD"/>
	<stop  offset="0.0261" style="stop-color:#8E3DDD"/>
	<stop  offset="0.0749" style="stop-color:#7822DC"/>
	<stop  offset="0.1248" style="stop-color:#690FDC"/>
	<stop  offset="0.176" style="stop-color:#5F04DC"/>
	<stop  offset="0.2306" style="stop-color:#5C00DC"/>
	<stop  offset="0.2855" style="stop-color:#4C00B7"/>
	<stop  offset="0.4381" style="stop-color:#210053"/>
	<stop  offset="0.5065" style="stop-color:#10002B"/>
	<stop  offset="0.7536" style="stop-color:#03071E"/>
	<stop  offset="1" style="stop-color:#E2312D"/>
</linearGradient>
<path style="fill:url(#SVGID_00000144299801328318820260000002133535552548957327_);" d="M-1132.54,6103.16h-5.71l0,0
	c-45.1,0-81.66,36.56-81.66,81.66l0,0v5.71c0,41.94,34,75.95,75.95,75.95h0c3.15,0,5.71-2.56,5.71-5.71v-75.95h75.95
	c3.15,0,5.71-2.56,5.71-5.71l0,0C-1056.6,6137.16-1090.6,6103.16-1132.54,6103.16z"/>
<linearGradient id="SVGID_00000109736155378591962540000015547612333105432733_" gradientUnits="userSpaceOnUse" x1="-2330.562" y1="6814.8018" x2="-609.4192" y2="6105.0874">
	<stop  offset="0" style="stop-color:#9D4EDD"/>
	<stop  offset="0.0261" style="stop-color:#8E3DDD"/>
	<stop  offset="0.0749" style="stop-color:#7822DC"/>
	<stop  offset="0.1248" style="stop-color:#690FDC"/>
	<stop  offset="0.176" style="stop-color:#5F04DC"/>
	<stop  offset="0.2306" style="stop-color:#5C00DC"/>
	<stop  offset="0.2855" style="stop-color:#4C00B7"/>
	<stop  offset="0.4381" style="stop-color:#210053"/>
	<stop  offset="0.5065" style="stop-color:#10002B"/>
	<stop  offset="0.7536" style="stop-color:#03071E"/>
	<stop  offset="1" style="stop-color:#E2312D"/>
</linearGradient>
<path style="fill:url(#SVGID_00000109736155378591962540000015547612333105432733_);" d="M-774.49,6103.16h-56.57
	c-6.93,0-12.54,5.62-12.54,12.54v69.11v69.11c0,6.93,5.62,12.54,12.54,12.54h56.57c6.93,0,12.54-5.62,12.54-12.54v-69.11v-69.11
	C-761.95,6108.78-767.56,6103.16-774.49,6103.16z"/>
<linearGradient id="SVGID_00000005246704258334557700000011834185212404734633_" gradientUnits="userSpaceOnUse" x1="-2351.9717" y1="6762.8809" x2="-630.8289" y2="6053.1665">
	<stop  offset="0" style="stop-color:#9D4EDD"/>
	<stop  offset="0.0261" style="stop-color:#8E3DDD"/>
	<stop  offset="0.0749" style="stop-color:#7822DC"/>
	<stop  offset="0.1248" style="stop-color:#690FDC"/>
	<stop  offset="0.176" style="stop-color:#5F04DC"/>
	<stop  offset="0.2306" style="stop-color:#5C00DC"/>
	<stop  offset="0.2855" style="stop-color:#4C00B7"/>
	<stop  offset="0.4381" style="stop-color:#210053"/>
	<stop  offset="0.5065" style="stop-color:#10002B"/>
	<stop  offset="0.7536" style="stop-color:#03071E"/>
	<stop  offset="1" style="stop-color:#E2312D"/>
</linearGradient>
<path style="fill:url(#SVGID_00000005246704258334557700000011834185212404734633_);" d="M-880.99,6184.82h-69.11v-69.11
	c0-6.93-5.62-12.54-12.54-12.54h-56.57c-6.93,0-12.54,5.62-12.54,12.54v69.11l0,0c0,45.1,36.56,81.66,81.66,81.66h0h69.11
	c6.93,0,12.54-5.62,12.54-12.54v-56.57C-868.44,6190.43-874.06,6184.82-880.99,6184.82z"/>
<linearGradient id="SVGID_00000076585602499545216640000000354735073664864909_" gradientUnits="userSpaceOnUse" x1="-2281.8093" y1="6933.0327" x2="-560.6666" y2="6223.3188">
	<stop  offset="0" style="stop-color:#9D4EDD"/>
	<stop  offset="0.0261" style="stop-color:#8E3DDD"/>
	<stop  offset="0.0749" style="stop-color:#7822DC"/>
	<stop  offset="0.1248" style="stop-color:#690FDC"/>
	<stop  offset="0.176" style="stop-color:#5F04DC"/>
	<stop  offset="0.2306" style="stop-color:#5C00DC"/>
	<stop  offset="0.2855" style="stop-color:#4C00B7"/>
	<stop  offset="0.4381" style="stop-color:#210053"/>
	<stop  offset="0.5065" style="stop-color:#10002B"/>
	<stop  offset="0.7536" style="stop-color:#03071E"/>
	<stop  offset="1" style="stop-color:#E2312D"/>
</linearGradient>
<path style="fill:url(#SVGID_00000076585602499545216640000000354735073664864909_);" d="M-398.18,6184.82h-69.11v-69.11
	c0-6.93-5.62-12.54-12.54-12.54h-56.57c-6.93,0-12.54,5.62-12.54,12.54v69.11l0,0c0,45.1,36.56,81.66,81.66,81.66l0,0h69.11
	c6.93,0,12.54-5.62,12.54-12.54v-56.57C-385.64,6190.43-391.26,6184.82-398.18,6184.82z"/>
<linearGradient id="SVGID_00000006670802003336243430000015011594362872998063_" gradientUnits="userSpaceOnUse" x1="-2432.1824" y1="6568.3604" x2="-711.0396" y2="5858.646">
	<stop  offset="0" style="stop-color:#9D4EDD"/>
	<stop  offset="0.0261" style="stop-color:#8E3DDD"/>
	<stop  offset="0.0749" style="stop-color:#7822DC"/>
	<stop  offset="0.1248" style="stop-color:#690FDC"/>
	<stop  offset="0.176" style="stop-color:#5F04DC"/>
	<stop  offset="0.2306" style="stop-color:#5C00DC"/>
	<stop  offset="0.2855" style="stop-color:#4C00B7"/>
	<stop  offset="0.4381" style="stop-color:#210053"/>
	<stop  offset="0.5065" style="stop-color:#10002B"/>
	<stop  offset="0.7536" style="stop-color:#03071E"/>
	<stop  offset="1" style="stop-color:#E2312D"/>
</linearGradient>
<path style="fill:url(#SVGID_00000006670802003336243430000015011594362872998063_);" d="M-1383.22,6180.62L-1383.22,6180.62
	c0-41.94-34-75.95-75.95-75.95h-5.71h0c-45.1,0-81.66,36.56-81.66,81.66l0,0h-75.95c-3.15,0-5.71,2.56-5.71,5.71v0
	c0,41.94,34,75.95,75.95,75.95h5.71h0c45.1,0,81.66-36.56,81.66-81.66l0,0h75.95C-1385.78,6186.33-1383.22,6183.77-1383.22,6180.62z
	"/>
<linearGradient id="SVGID_00000037691049594022198370000004761825322781457811_" gradientUnits="userSpaceOnUse" x1="-2469.4822" y1="6477.9033" x2="-748.3394" y2="5768.1895">
	<stop  offset="0" style="stop-color:#9D4EDD"/>
	<stop  offset="0.0261" style="stop-color:#8E3DDD"/>
	<stop  offset="0.0749" style="stop-color:#7822DC"/>
	<stop  offset="0.1248" style="stop-color:#690FDC"/>
	<stop  offset="0.176" style="stop-color:#5F04DC"/>
	<stop  offset="0.2306" style="stop-color:#5C00DC"/>
	<stop  offset="0.2855" style="stop-color:#4C00B7"/>
	<stop  offset="0.4381" style="stop-color:#210053"/>
	<stop  offset="0.5065" style="stop-color:#10002B"/>
	<stop  offset="0.7536" style="stop-color:#03071E"/>
	<stop  offset="1" style="stop-color:#E2312D"/>
</linearGradient>
<path style="fill:url(#SVGID_00000037691049594022198370000004761825322781457811_);" d="M-1665.57,6104.67h-69.11h-69.11
	c-6.93,0-12.54,5.62-12.54,12.54v69.11l0,0c0,45.1,36.56,81.66,81.66,81.66l0,0h0c45.1,0,81.66-36.56,81.66-81.66l0,0v-69.11
	C-1653.03,6110.29-1658.64,6104.67-1665.57,6104.67z"/>
<linearGradient id="SVGID_00000149372520772552856040000015640641721454299269_" gradientUnits="userSpaceOnUse" x1="-2493.6653" y1="6419.2568" x2="-772.5225" y2="5709.5425">
	<stop  offset="0" style="stop-color:#9D4EDD"/>
	<stop  offset="0.0261" style="stop-color:#8E3DDD"/>
	<stop  offset="0.0749" style="stop-color:#7822DC"/>
	<stop  offset="0.1248" style="stop-color:#690FDC"/>
	<stop  offset="0.176" style="stop-color:#5F04DC"/>
	<stop  offset="0.2306" style="stop-color:#5C00DC"/>
	<stop  offset="0.2855" style="stop-color:#4C00B7"/>
	<stop  offset="0.4381" style="stop-color:#210053"/>
	<stop  offset="0.5065" style="stop-color:#10002B"/>
	<stop  offset="0.7536" style="stop-color:#03071E"/>
	<stop  offset="1" style="stop-color:#E2312D"/>
</linearGradient>
<path style="fill:url(#SVGID_00000149372520772552856040000015640641721454299269_);" d="M-1922.84,6266.47L-1922.84,6266.47
	c45.1,0,81.66-36.56,81.66-81.66l0,0h-81.66v-75.95c0-3.15-2.56-5.71-5.71-5.71l0,0c-41.94,0-75.95,34-75.95,75.95v5.71l0,0
	C-2004.49,6229.92-1967.93,6266.47-1922.84,6266.47L-1922.84,6266.47z"/>
<g id="Logo_violeta_00000062178098494910548080000001379776808632979850_">
	<path class="st1" d="M-1598.59,254L-1598.59,254L-1598.59,254c-157.95,0-286,128.05-286,286v0v0c0,157.95,128.05,286,286,286h0h266
		c11.05,0,20-8.95,20-20V540v0C-1312.59,382.05-1440.64,254-1598.59,254z"/>
	<path class="st1" d="M-959.69,254h-20h0c-157.95,0-286,128.05-286,286v0v20c0,146.91,119.09,266,266,266l0,0c11.05,0,20-8.95,20-20
		V540l266,0c11.05,0,20-8.95,20-20v0C-693.69,373.09-812.79,254-959.69,254z"/>
</g>
<g>
	<path class="st1" d="M-1908.08-954.91L-1908.08-954.91h110.21c11.05,0,20-8.95,20-20v-110.21v0c0-71.91-58.3-130.21-130.21-130.21
		h0h0c-71.91,0-130.21,58.3-130.21,130.21v0v0C-2038.29-1013.2-1979.99-954.91-1908.08-954.91z"/>
	<path class="st1" d="M-838.13-891.38L-838.13-891.38L-838.13-891.38c-71.91,0-130.21,58.3-130.21,130.21v0v0
		c0,71.91,58.3,130.21,130.21,130.21h0v-130.21l130.21,0v0C-707.92-833.08-766.22-891.38-838.13-891.38z"/>
	<path class="st1" d="M-1598.93-891.38h-9.11h0c-71.91,0-130.21,58.3-130.21,130.21v0v9.11c0,66.89,54.22,121.11,121.11,121.11h0
		c5.03,0,9.11-4.08,9.11-9.11v-121.11l121.11,0c5.03,0,9.11-4.08,9.11-9.11v0C-1477.83-837.16-1532.05-891.38-1598.93-891.38z"/>
	<path class="st1" d="M-1027.96-891.38h-90.21c-11.05,0-20,8.95-20,20v110.21v110.21c0,11.05,8.95,20,20,20h90.21
		c11.05,0,20-8.95,20-20v-110.21v-110.21C-1007.96-882.43-1016.91-891.38-1027.96-891.38z"/>
	<path class="st1" d="M-1197.79-761.17H-1308v-110.21c0-11.05-8.95-20-20-20h-90.21c-11.05,0-20,8.95-20,20v110.21v0
		c0,71.91,58.3,130.21,130.21,130.21h0h110.21c11.05,0,20-8.95,20-20v-90.21C-1177.79-752.21-1186.74-761.17-1197.79-761.17z"/>
	<path class="st1" d="M-427.88-761.17h-110.21v-110.21c0-11.05-8.95-20-20-20h-90.21c-11.05,0-20,8.95-20,20v110.21v0
		c0,71.91,58.3,130.21,130.21,130.21l0,0h110.21c11.05,0,20-8.95,20-20v-90.21C-407.88-752.21-416.83-761.17-427.88-761.17z"/>
	<path class="st1" d="M-747.53-1091.82L-747.53-1091.82c0-66.89-54.22-121.11-121.11-121.11h-9.11h0
		c-71.91,0-130.21,58.3-130.21,130.21v0h-121.11c-5.03,0-9.11,4.08-9.11,9.11v0c0,66.89,54.22,121.11,121.11,121.11h9.11h0
		c71.91,0,130.21-58.3,130.21-130.21v0h121.11C-751.61-1082.71-747.53-1086.79-747.53-1091.82z"/>
	<path class="st1" d="M-1197.79-1212.93H-1308h-110.21c-11.05,0-20,8.95-20,20v110.21v0c0,71.91,58.3,130.21,130.21,130.21h0h0
		c71.91,0,130.21-58.3,130.21-130.21v0v-110.21C-1177.79-1203.97-1186.74-1212.93-1197.79-1212.93z"/>
	<path class="st1" d="M-1608.04-954.91L-1608.04-954.91c71.91,0,130.21-58.3,130.21-130.21v0h-130.21v-121.11
		c0-5.03-4.08-9.11-9.11-9.11h0c-66.89,0-121.11,54.22-121.11,121.11v9.11v0C-1738.25-1013.2-1679.95-954.91-1608.04-954.91
		L-1608.04-954.91z"/>
</g>
<path class="st1" d="M-2110.99,2015.04L-2110.99,2015.04h69.11c6.93,0,12.54-5.62,12.54-12.54v-69.11l0,0
	c0-45.1-36.56-81.66-81.66-81.66h0l0,0c-45.1,0-81.66,36.56-81.66,81.66l0,0v0C-2192.64,1978.49-2156.09,2015.04-2110.99,2015.04z"
	/>
<path class="st1" d="M-655.45,1851.73L-655.45,1851.73L-655.45,1851.73c-45.1,0-81.66,36.56-81.66,81.66v0v0
	c0,45.1,36.56,81.66,81.66,81.66h0v-81.66l81.66,0v0C-573.79,1888.29-610.35,1851.73-655.45,1851.73z"/>
<path class="st1" d="M-1132.54,1851.73h-5.71l0,0c-45.1,0-81.66,36.56-81.66,81.66v0v5.71c0,41.94,34,75.95,75.95,75.95h0
	c3.15,0,5.71-2.56,5.71-5.71v-75.95l75.95,0c3.15,0,5.71-2.56,5.71-5.71l0,0C-1056.6,1885.74-1090.6,1851.73-1132.54,1851.73z"/>
<path class="st1" d="M-774.49,1851.73h-56.57c-6.93,0-12.54,5.62-12.54,12.54v69.11v69.11c0,6.93,5.62,12.54,12.54,12.54h56.57
	c6.93,0,12.54-5.62,12.54-12.54v-69.11v-69.11C-761.95,1857.35-767.56,1851.73-774.49,1851.73z"/>
<path class="st1" d="M-880.99,1933.39h-69.11v-69.11c0-6.93-5.62-12.54-12.54-12.54h-56.57c-6.93,0-12.54,5.62-12.54,12.54v69.11v0
	c0,45.1,36.56,81.66,81.66,81.66h0h69.11c6.93,0,12.54-5.62,12.54-12.54v-56.57C-868.44,1939-874.06,1933.39-880.99,1933.39z"/>
<path class="st1" d="M-398.18,1933.39h-69.11v-69.11c0-6.93-5.62-12.54-12.54-12.54h-56.57c-6.93,0-12.54,5.62-12.54,12.54v69.11v0
	c0,45.1,36.56,81.66,81.66,81.66l0,0h69.11c6.93,0,12.54-5.62,12.54-12.54v-56.57C-385.64,1939-391.26,1933.39-398.18,1933.39z"/>
<path class="st1" d="M-1383.22,1929.19L-1383.22,1929.19c0-41.94-34-75.95-75.95-75.95h-5.71h0c-45.1,0-81.66,36.56-81.66,81.66v0
	h-75.95c-3.15,0-5.71,2.56-5.71,5.71l0,0c0,41.94,34,75.95,75.95,75.95h5.71h0c45.1,0,81.66-36.56,81.66-81.66l0,0h75.95
	C-1385.78,1934.9-1383.22,1932.34-1383.22,1929.19z"/>
<path class="st1" d="M-1665.57,1853.24h-69.11h-69.11c-6.93,0-12.54,5.62-12.54,12.54v69.11l0,0c0,45.1,36.56,81.66,81.66,81.66l0,0
	h0c45.1,0,81.66-36.56,81.66-81.66l0,0v-69.11C-1653.03,1858.86-1658.64,1853.24-1665.57,1853.24z"/>
<path class="st1" d="M-1922.84,2015.04L-1922.84,2015.04c45.1,0,81.66-36.56,81.66-81.66v0h-81.66v-75.95
	c0-3.15-2.56-5.71-5.71-5.71l0,0c-41.94,0-75.95,34-75.95,75.95v5.71v0C-2004.49,1978.49-1967.93,2015.04-1922.84,2015.04
	L-1922.84,2015.04z"/>
<g>
	<path class="st0" d="M650.55,254L650.55,254L650.55,254c-157.95,0-286,128.05-286,286v0v0c0,157.95,128.05,286,286,286h0h266
		c11.05,0,20-8.95,20-20V540v0C936.55,382.05,808.5,254,650.55,254z"/>
	<path class="st0" d="M1289.45,254h-20h0c-157.95,0-286,128.05-286,286v0v20c0,146.91,119.09,266,266,266l0,0c11.05,0,20-8.95,20-20
		V540l266,0c11.05,0,20-8.95,20-20v0C1555.45,373.09,1436.36,254,1289.45,254z"/>
</g>
<g>
	<path class="st44" d="M341.06-954.91L341.06-954.91h110.21c11.05,0,20-8.95,20-20v-110.21v0c0-71.91-58.3-130.21-130.21-130.21h0h0
		c-71.91,0-130.21,58.3-130.21,130.21v0v0C210.85-1013.2,269.15-954.91,341.06-954.91z"/>
	<path class="st44" d="M1411.01-891.38L1411.01-891.38L1411.01-891.38c-71.91,0-130.21,58.3-130.21,130.21v0v0
		c0,71.91,58.3,130.21,130.21,130.21h0v-130.21l130.21,0v0C1541.22-833.08,1482.92-891.38,1411.01-891.38z"/>
	<path class="st44" d="M650.21-891.38h-9.11h0c-71.91,0-130.21,58.3-130.21,130.21v0v9.11c0,66.89,54.22,121.11,121.11,121.11h0
		c5.03,0,9.11-4.08,9.11-9.11v-121.11l121.11,0c5.03,0,9.11-4.08,9.11-9.11v0C771.32-837.16,717.09-891.38,650.21-891.38z"/>
	<path class="st44" d="M1221.18-891.38h-90.21c-11.05,0-20,8.95-20,20v110.21v110.21c0,11.05,8.95,20,20,20h90.21
		c11.05,0,20-8.95,20-20v-110.21v-110.21C1241.18-882.43,1232.23-891.38,1221.18-891.38z"/>
	<path class="st44" d="M1051.36-761.17H941.14v-110.21c0-11.05-8.95-20-20-20h-90.21c-11.05,0-20,8.95-20,20v110.21v0
		c0,71.91,58.3,130.21,130.21,130.21h0h110.21c11.05,0,20-8.95,20-20v-90.21C1071.36-752.21,1062.4-761.17,1051.36-761.17z"/>
	<path class="st44" d="M1821.26-761.17h-110.21v-110.21c0-11.05-8.95-20-20-20h-90.21c-11.05,0-20,8.95-20,20v110.21v0
		c0,71.91,58.3,130.21,130.21,130.21l0,0h110.21c11.05,0,20-8.95,20-20v-90.21C1841.26-752.21,1832.31-761.17,1821.26-761.17z"/>
	<path class="st44" d="M1501.61-1091.82L1501.61-1091.82c0-66.89-54.22-121.11-121.11-121.11h-9.11h0
		c-71.91,0-130.21,58.3-130.21,130.21v0h-121.11c-5.03,0-9.11,4.08-9.11,9.11v0c0,66.89,54.22,121.11,121.11,121.11h9.11h0
		c71.91,0,130.21-58.3,130.21-130.21v0h121.11C1497.53-1082.71,1501.61-1086.79,1501.61-1091.82z"/>
	<path class="st44" d="M1051.36-1212.93H941.14H830.93c-11.05,0-20,8.95-20,20v110.21v0c0,71.91,58.3,130.21,130.21,130.21h0h0
		c71.91,0,130.21-58.3,130.21-130.21v0v-110.21C1071.36-1203.97,1062.4-1212.93,1051.36-1212.93z"/>
	<path class="st44" d="M641.1-954.91L641.1-954.91c71.91,0,130.21-58.3,130.21-130.21v0H641.1v-121.11c0-5.03-4.08-9.11-9.11-9.11h0
		c-66.89,0-121.11,54.22-121.11,121.11v9.11v0C510.89-1013.2,569.19-954.91,641.1-954.91L641.1-954.91z"/>
</g>
<path class="st44" d="M138.15,2015.04L138.15,2015.04h69.11c6.93,0,12.54-5.62,12.54-12.54v-69.11l0,0
	c0-45.1-36.56-81.66-81.66-81.66h0h0c-45.1,0-81.66,36.56-81.66,81.66l0,0v0C56.5,1978.49,93.06,2015.04,138.15,2015.04z"/>
<path class="st44" d="M1593.69,1851.73L1593.69,1851.73L1593.69,1851.73c-45.1,0-81.66,36.56-81.66,81.66v0v0
	c0,45.1,36.56,81.66,81.66,81.66h0v-81.66l81.66,0v0C1675.35,1888.29,1638.79,1851.73,1593.69,1851.73z"/>
<path class="st44" d="M1116.6,1851.73h-5.71h0c-45.1,0-81.66,36.56-81.66,81.66v0v5.71c0,41.94,34,75.95,75.95,75.95h0
	c3.15,0,5.71-2.56,5.71-5.71v-75.95l75.95,0c3.15,0,5.71-2.56,5.71-5.71l0,0C1192.55,1885.74,1158.54,1851.73,1116.6,1851.73z"/>
<path class="st44" d="M1474.65,1851.73h-56.57c-6.93,0-12.54,5.62-12.54,12.54v69.11v69.11c0,6.93,5.62,12.54,12.54,12.54h56.57
	c6.93,0,12.54-5.62,12.54-12.54v-69.11v-69.11C1487.2,1857.35,1481.58,1851.73,1474.65,1851.73z"/>
<path class="st44" d="M1368.16,1933.39h-69.11v-69.11c0-6.93-5.62-12.54-12.54-12.54h-56.57c-6.93,0-12.54,5.62-12.54,12.54v69.11v0
	c0,45.1,36.56,81.66,81.66,81.66l0,0h69.11c6.93,0,12.54-5.62,12.54-12.54v-56.57C1380.7,1939,1375.08,1933.39,1368.16,1933.39z"/>
<path class="st44" d="M1850.96,1933.39h-69.11v-69.11c0-6.93-5.62-12.54-12.54-12.54h-56.57c-6.93,0-12.54,5.62-12.54,12.54v69.11v0
	c0,45.1,36.56,81.66,81.66,81.66l0,0h69.11c6.93,0,12.54-5.62,12.54-12.54v-56.57C1863.5,1939,1857.89,1933.39,1850.96,1933.39z"/>
<path class="st44" d="M865.92,1929.19L865.92,1929.19c0-41.94-34-75.95-75.95-75.95h-5.71h0c-45.1,0-81.66,36.56-81.66,81.66v0
	h-75.95c-3.15,0-5.71,2.56-5.71,5.71l0,0c0,41.94,34,75.95,75.95,75.95h5.71h0c45.1,0,81.66-36.56,81.66-81.66l0,0h75.95
	C863.37,1934.9,865.92,1932.34,865.92,1929.19z"/>
<path class="st44" d="M583.57,1853.24h-69.11h-69.11c-6.93,0-12.54,5.62-12.54,12.54v69.11l0,0c0,45.1,36.56,81.66,81.66,81.66h0h0
	c45.1,0,81.66-36.56,81.66-81.66l0,0v-69.11C596.12,1858.86,590.5,1853.24,583.57,1853.24z"/>
<path class="st44" d="M326.31,2015.04L326.31,2015.04c45.1,0,81.66-36.56,81.66-81.66v0h-81.66v-75.95c0-3.15-2.56-5.71-5.71-5.71h0
	c-41.94,0-75.95,34-75.95,75.95v5.71v0C244.65,1978.49,281.21,2015.04,326.31,2015.04L326.31,2015.04z"/>
<rect x="-832.13" y="1238.05" style="fill:none;" width="2.57" height="0"/>
</svg>
